<svg xmlns="http://www.w3.org/2000/svg" viewBox="0 0 958.26 1106.49"><defs><style>.cls-1{fill:#ffba31;}.cls-2{fill:#f4b23d;}.cls-3{fill:#eda53b;}.cls-4{fill:#e2e2e2;}.cls-5{fill:#eaeaea;}.cls-6{fill:#d1d1d1;}</style></defs><title>Element 3</title><g id="Ebene_2" data-name="Ebene 2"><g id="orange"><polygon class="cls-1" points="239.56 276.62 239.56 414.93 598.91 207.47 598.91 69.15 239.56 276.62"/><polygon class="cls-2" points="0 691.55 359.35 899.02 479.13 829.87 119.78 622.4 0 691.55"/><polygon class="cls-2" points="479.13 829.87 598.91 899.02 958.25 691.55 838.47 622.4 479.13 829.87"/><polygon class="cls-3" points="718.69 276.62 718.69 414.93 479.13 276.62 479.13 138.31 718.69 276.62"/><polygon class="cls-1" points="119.78 484.09 239.56 414.93 239.56 691.55 119.78 760.71 119.78 484.09"/><polyline class="cls-3" points="838.47 760.71 718.69 691.55 718.69 414.93 838.47 484.09"/><path class="cls-4" d="M359.35,1037.33"/><path class="cls-5" d="M838.47,345.78,479.13,553.24v553.25l119.78-69.16L958.25,829.87V276.62ZM598.91,899V622.4L838.47,484.09V760.71Z"/><path class="cls-6" d="M359.35,484.09,0,276.62V829.87L119.78,899l359.35,207.47V553.24ZM119.78,760.71V484.09L359.35,622.4V899Z"/><path class="cls-4" d="M838.48,207.47,479.13,0,359.36,69.16,0,276.62l119.78,69.16L479.13,553.24l119.78-69.15L958.26,276.62ZM479.13,414.93,239.57,276.62,479.13,138.31,718.69,276.62Z"/></g></g></svg>