<svg id="orange" xmlns="http://www.w3.org/2000/svg" viewBox="0 0 958.2 1106.5"><style>.st0{fill:#ffba31}.st1{fill:#f4b23d}.st2{fill:#eda53b}</style><path class="st0" d="M239.6 276.6v138.3l359.3-207.4V69.2h-2.1L239.1 275.7z"/><path class="st1" d="M0 691.6l.8 2L359.4 901l-.1-2 119.8-69.1-359.3-207.5zM479.1 829.9L598.9 899l.2 1.8L957 693.4l1.2-1.8-119.7-69.2z"/><path class="st2" d="M718.7 276.6v138.3L479.1 276.6V138.3l-.2-1.4 240.7 138.8z"/><path class="st0" d="M119.8 484.1l119.8-69.2v276.7l-119.8 69.1-1.5.1-.7-276.6z"/><path class="st2" d="M838.5 760.7l-119.8-69.1V414.9l119.8 69.2 1.3.1-.3 276.5z"/><path d="M478.1 552.2l-1 551.3 2 2.9 479.1-276.6V276.6l-1.8-.8-478.3 276.4zM598.9 899V622.4l239.6-138.3v276.6L598.9 899z" fill="#eaeaea"/><path d="M0 276.6v553.2L119.8 899l359.3 207.5V553.2l-.7-1.8L2.5 276.8l-2.5-.2zm119.8 484.1V484.1l239.6 138.3V899L119.8 760.7z" fill="#d1d1d1"/><path d="M479.1 0L0 276.6l1.7 1 477.4 275.6 479.1-276.6L479.1 0zm0 414.9L239.6 276.6l239.6-138.3 239.6 138.3-239.7 138.3z" fill="#e2e2e2"/></svg>