<svg xmlns="http://www.w3.org/2000/svg" viewBox="0 0 49 56.58"><path fill="#eaeaea" d="M24.5 0L0 14.15v28.28l24.5 14.15L49 42.43V14.15zm-6.13 45.97L6.12 38.9V24.75l12.25 7.08zm-6.12-31.82L24.5 7.08l12.25 7.07-12.25 7.07zM42.87 38.9l-12.25 7.07V31.83l12.25-7.08z"/><path fill="#ff9630" d="M44.7 21.57v18.4l-7.95 4.6-7.96 4.58v-9.19l7.96-4.6v-9.19zM33.09 9.2L24.5 4.24 15.93 9.2l-8.58 4.95 8.58 4.96 8.57-4.96 8.58 4.96 8.57-4.96zM12.25 35.36v-9.19l-7.96-4.6v18.4l7.96 4.6 7.96 4.58v-9.19z"/><path fill="#c7d1db" d="M0 14.15v28.29l24.5 14.14V28.3L0 14.15zM6.13 38.9V24.76l12.25 7.07v14.14z"/><path fill="#f9f4f1" d="M24.5 56.58L49 42.44v-28.3L24.5 28.3v28.3zm6.13-24.75l12.24-7.07V38.9l-12.24 7.07V31.83z"/><path fill="#e3e6e9" d="M0 14.15l24.5 14.14L49 14.15 24.5 0 0 14.15zm12.25 0L24.5 7.07l12.25 7.08-12.25 7.07z"/></svg>
